<svg version="1" xmlns="http://www.w3.org/2000/svg" width="180" height="180" viewBox="0 0 1800 1800"><path d="M0 900V0h1800v1800H0V900z" fill="#2a6654"/><path d="M325 913c90-238 260-417 510-534 149-70 251-91 465-96l185-4-114 111c-106 104-115 111-144 104-17-3-88-6-157-6-254-1-452 80-607 245-54 58-114 159-137 230-3 9-10 17-16 17-5 0 2-30 15-67z" fill="#cb521c"/><g fill="#c4d600"><path d="M717 1493c-21-2-37-8-35-12 2-5 46-102 98-217 110-240 107-242 87 46l-12 185-50 1c-27 1-67-1-88-3zM995 1467c-9-27-72-417-67-412 3 3 54 87 112 188l107 182-38 17c-64 28-110 38-114 25zM489 1411c-24-15-58-44-76-62l-32-34 171-105c244-149 273-165 263-149-10 15-263 359-274 372-4 4-27-6-52-22zM1127 1208c-75-84-135-154-133-156s92 41 200 95l196 98-38 38c-20 21-49 47-63 58l-26 18-136-151zM306 1169c-3-17-6-53-6-80v-49h222c122 0 219 2 217 4-3 4-419 156-425 156-1 0-4-14-8-31zM1260 1102l-165-57 102-3c57-1 148-1 202 0l100 3-22 55c-12 30-29 56-37 57s-89-24-180-55z"/></g><g fill="#fff"><path d="M680 975c0-4 7-19 15-35 15-28 19-30 79-30 57 0 65 3 80 25 27 42 22 45-79 45-52 0-95-2-95-5zM977 905c27-34 31-35 94-35 55 0 69 4 86 23 42 47 42 47-87 47H949l28-35zM842 898c3-7 18-51 33-98 16-47 31-78 33-70 3 8 18 52 33 98l28 82h-66c-48 0-64-3-61-12z"/></g></svg>