<svg xmlns="http://www.w3.org/2000/svg" viewBox="0 0 50 650"><style>.st1{fill:#fc8c44}.st2{fill:#ee7400}.st6{fill:#d85050}</style><path d="M13.9 12.7c.2.1.3.4.2.7-.1.2-.4.3-.7.2-1.1-.6-1.2-.7-1.4-1.3v-1.1c0-.1.1-.3.1-.4.6-.6 1-1.4 1.3-2.4 0-.1.1-.2.2-.3.5-.3.6-1 .3-1.5l-.1-.1c-.1-.1-.1-.2-.1-.3V4.1C13.7 2 12.5.9 10.1.9S6.5 2.1 6.5 4.1v2.1c0 .1 0 .2-.1.3-.4.4-.3 1.1.1 1.5l.1.1c.1.1.2.2.2.3.3 1 .7 1.8 1.3 2.4.1.1.1.2.1.3v1.1c-.3 1-2.7 2.2-7.1 3.9-.1 0-.1.1-.1.2v2.4c0 .1.1.2.2.2h10.3c.3 0 .5.2.5.5s-.2.5-.5.5H1.4c-.7 0-1.2-.5-1.2-1.2v-2.4c0-.5.3-.9.8-1.1 3.7-1.4 6.1-2.6 6.4-3.2v-.7c-.6-.6-1.1-1.4-1.4-2.4-.8-.7-1-1.8-.4-2.7v-2C5.6 1.6 7.3 0 10.2 0c3 0 4.6 1.6 4.6 4.2v2c.6.9.4 2-.4 2.7-.3 1-.8 1.8-1.4 2.5v.7c0 .1.1.2.9.6h0zm8 3.5c.9 0 1.5.7 1.6 1.6l-.5 4.8c0 .4-.1.7-.4 1-.3.2-.7.4-1.1.4h-5.4c-.8 0-1.5-.7-1.5-1.5l-.5-4.8c0-.4.1-.8.4-1.1.3-.2.7-.4 1.1-.4h.5v-1.8c0-1.3 1.2-2.5 2.7-2.5s2.7 1.1 2.7 2.5v1.8h.4zm-4.9 0h3.6v-1.8c0-.8-.8-1.6-1.8-1.6s-1.8.7-1.8 1.6v1.8zm5.5 1.5c0-.3-.2-.6-.7-.6h-6.3c-.3 0-.6.3-.6.6l.5 4.8c0 .3.2.6.6.6h5.4c.3 0 .6-.3.6-.6l.5-4.8z" fill="#fff" stroke="#fff" stroke-width=".3"/><path class="st1" d="M28.3 257c0-1.9-.9-3.7-2.4-5-1.9-1.7-4.4-2.4-6.9-1.9-2 .3-3.8 1.4-4.9 3.1-1.1-1.7-2.9-2.8-4.8-3.1-2.5-.5-5 .2-6.9 1.9-1.5 1.2-2.4 3.1-2.4 5-.2 2.4.7 4.7 2.3 6.5 2.9 3.6 9 8.6 10.9 10.1.6.5 1.4.5 2 0 1.8-1.5 8-6.5 10.8-10 1.6-1.7 2.5-4.1 2.3-6.6zm-3.3 5.7c-2.8 3.4-8.9 8.4-10.7 9.9-.1.1-.2.1-.3 0-1.8-1.4-7.9-6.4-10.7-9.9-1.4-1.5-2.1-3.5-1.9-5.6 0-1.6.7-3 1.9-4 1.2-1.1 2.9-1.7 4.6-1.7.4 0 .8 0 1.3.1 2 .3 3.7 1.6 4.5 3.4.2.3.6.4.9.3.1-.1.2-.1.3-.3.8-1.8 2.5-3.1 4.4-3.4 2.1-.4 4.2.2 5.8 1.6h.1c1.2 1 1.9 2.5 1.9 4 0 2-.7 4.1-2.1 5.6zM27 57.1h-2.7L23.2 53c-.2-1.7-1.6-3-3.3-3H8.5c-1.7.1-3.1 1.3-3.3 3L4 57.1H1.4c-.8 0-1.4.6-1.4 1.3v.9c0 1 .8 1.3 1.5 1.4-.2 1.4-.5 3.9-.6 5.1V72c0 1.1.8 1.9 1.9 1.9h1.9c1.1 0 1.9-.9 1.9-1.9v-1.7h15.2V72c0 1.1.9 1.9 1.9 1.9h1.9c1 0 1.9-.9 1.9-1.9V65.8c-.1-1.2-.4-3.7-.7-5 .6-.1 1.5-.4 1.5-1.4v-.9c0-.7-.6-1.4-1.3-1.4zM6.5 53.3c.1-1.1 1-1.9 2-2h11.3c1.1.1 2 .9 2.1 2l1.2 4.5c-.3 1.1-1.3 1.8-2.4 1.8h-13c-1.1.1-2.1-.7-2.4-1.7l1.2-4.6zM5.3 72.2c0 .3-.3.6-.6.6H2.8c-.3 0-.6-.3-.6-.6v-1.7h3.1v1.7zm20.3.6h-1.9c-.3 0-.6-.3-.6-.6v-1.7h3.1v1.7c0 .3-.3.6-.6.6zm.7-13.3l-.4.1c-.4.1-.6.5-.5.8v.1c.3 1.8.6 3.6.8 5.4v3.2h-24V66c.2-1.8.4-3.6.8-5.4.1-.2.1-.4 0-.6-.1-.2-.3-.3-.5-.4H2c-.2 0-.5-.1-.7-.2v-.9H4c.6 1.5 2 2.4 3.6 2.4h13c1.6 0 3-1 3.6-2.4h2.7v.9c-.1 0-.3.1-.6.1z"/><path class="st1" d="M17.3 64.4h-6c-.4 0-.7.3-.7.7 0 .4.3.7.7.7h6c.4 0 .7-.3.7-.7-.1-.4-.4-.7-.7-.7zM17.3 66.8h-6c-.4 0-.7.3-.7.7s.3.7.7.7h6c.4 0 .7-.3.7-.7-.1-.4-.4-.7-.7-.7zM7 63.2c-1.4 0-2.5 1.1-2.5 2.5s1.1 2.5 2.5 2.5 2.5-1.1 2.5-2.5-1.1-2.5-2.5-2.5zm0 3.7c-.7 0-1.2-.5-1.2-1.2s.5-1.2 1.2-1.2 1.2.5 1.2 1.2-.5 1.2-1.2 1.2zM21.4 63.2c-1.4 0-2.5 1.1-2.5 2.5s1.1 2.5 2.5 2.5 2.5-1.1 2.5-2.5-1.1-2.5-2.5-2.5zm0 3.7c-.7 0-1.2-.5-1.2-1.2s.5-1.2 1.2-1.2 1.2.5 1.2 1.2-.6 1.2-1.2 1.2zM12.7 53.7h3.1c.4 0 .7-.3.7-.7 0-.4-.3-.7-.7-.7h-3.1c-.4 0-.7.3-.7.7-.1.4.3.7.7.7zM10 163.5H6.8c-.3 0-.6.3-.6.6v3.2c0 .3.3.6.6.6H10c.3 0 .6-.3.6-.6V164c0-.3-.3-.5-.6-.5zm-.6 3.1h-2v-2h2v2z"/><path class="st1" d="M25 160.3l-12-10.2c-.2-.2-.5-.2-.8 0l-12 10.2c-.2.2-.3.6-.1.8.2.2.6.3.8.1l1.1-.9v13.1c0 .3.3.6.6.6h19.9c.3 0 .6-.3.6-.6v-13.1l1.1.9c.3.2.6.2.8-.1.2-.2.2-.6 0-.8zm-11.4 12.5v-8.2h4.1v8.2h-4.1zm8.3 0h-3V164c0-.3-.3-.6-.6-.6H13c-.3 0-.6.3-.6.6v8.8H3.2v-13.5l9.4-7.9 9.4 7.9-.1 13.5z"/><path class="st2" d="M28.3 307c0-1.9-.9-3.7-2.4-5-1.9-1.7-4.4-2.4-6.9-1.9-2 .3-3.8 1.4-4.9 3.1-1.1-1.7-2.9-2.8-4.8-3.1-2.5-.5-5 .2-6.9 1.9-1.5 1.2-2.4 3.1-2.4 5-.2 2.4.7 4.7 2.3 6.5 2.9 3.6 9 8.6 10.9 10.1.6.5 1.4.5 2 0 1.8-1.5 8-6.5 10.8-10 1.6-1.7 2.5-4.1 2.3-6.6zm-3.3 5.7c-2.8 3.4-8.9 8.4-10.7 9.9-.1.1-.2.1-.3 0-1.8-1.4-7.9-6.4-10.7-9.9-1.4-1.5-2.1-3.5-1.9-5.6 0-1.6.7-3 1.9-4 1.2-1.1 2.9-1.7 4.6-1.7.4 0 .8 0 1.3.1 2 .3 3.7 1.6 4.5 3.4.2.3.6.4.9.3.1-.1.2-.1.3-.3.8-1.8 2.5-3.1 4.4-3.4 2.1-.4 4.2.2 5.8 1.6h.1c1.2 1 1.9 2.5 1.9 4 0 2-.7 4.1-2.1 5.6zM27 107.1h-2.7l-1.1-4.1c-.2-1.7-1.6-3-3.3-3H8.5c-1.7.1-3.1 1.3-3.3 3L4 107.1H1.4c-.8 0-1.4.6-1.4 1.3v.9c0 1 .8 1.3 1.5 1.4-.2 1.4-.5 3.9-.6 5.1v6.2c0 1.1.8 1.9 1.9 1.9h1.9c1.1 0 1.9-.9 1.9-1.9v-1.7h15.2v1.7c0 1.1.9 1.9 1.9 1.9h1.9c1 0 1.9-.9 1.9-1.9V115.8c-.1-1.2-.4-3.7-.7-5 .6-.1 1.5-.4 1.5-1.4v-.9c0-.7-.6-1.4-1.3-1.4zm-20.5-3.8c.1-1.1 1-1.9 2-2h11.3c1.1.1 2 .9 2.1 2l1.2 4.5c-.3 1.1-1.3 1.8-2.4 1.8h-13c-1.1.1-2.1-.7-2.4-1.7l1.2-4.6zm-1.2 18.9c0 .3-.3.6-.6.6H2.8c-.3 0-.6-.3-.6-.6v-1.7h3.1v1.7zm20.3.6h-1.9c-.3 0-.6-.3-.6-.6v-1.7h3.1v1.7c0 .3-.3.6-.6.6zm.7-13.3l-.4.1c-.4.1-.6.5-.5.8v.1c.3 1.8.6 3.6.8 5.4v3.2h-24V116c.2-1.8.4-3.6.8-5.4.1-.2.1-.4 0-.6-.1-.2-.3-.3-.5-.4H2c-.2 0-.5-.1-.7-.2v-.9H4c.6 1.5 2 2.4 3.6 2.4h13c1.6 0 3-1 3.6-2.4h2.7v.9c-.1 0-.3.1-.6.1z"/><path class="st2" d="M17.3 114.4h-6c-.4 0-.7.3-.7.7 0 .4.3.7.7.7h6c.4 0 .7-.3.7-.7-.1-.4-.4-.7-.7-.7zM17.3 116.8h-6c-.4 0-.7.3-.7.7s.3.7.7.7h6c.4 0 .7-.3.7-.7-.1-.4-.4-.7-.7-.7zM7 113.2c-1.4 0-2.5 1.1-2.5 2.5s1.1 2.5 2.5 2.5 2.5-1.1 2.5-2.5-1.1-2.5-2.5-2.5zm0 3.7c-.7 0-1.2-.5-1.2-1.2s.5-1.2 1.2-1.2 1.2.5 1.2 1.2-.5 1.2-1.2 1.2zM21.4 113.2c-1.4 0-2.5 1.1-2.5 2.5s1.1 2.5 2.5 2.5 2.5-1.1 2.5-2.5-1.1-2.5-2.5-2.5zm0 3.7c-.7 0-1.2-.5-1.2-1.2s.5-1.2 1.2-1.2 1.2.5 1.2 1.2-.6 1.2-1.2 1.2zM12.7 103.7h3.1c.4 0 .7-.3.7-.7 0-.4-.3-.7-.7-.7h-3.1c-.4 0-.7.3-.7.7-.1.4.3.7.7.7zM10 213.5H6.8c-.3 0-.6.3-.6.6v3.2c0 .3.3.6.6.6H10c.3 0 .6-.3.6-.6V214c0-.3-.3-.5-.6-.5zm-.6 3.1h-2v-2h2v2z"/><path class="st2" d="M25 210.3l-12-10.2c-.2-.2-.5-.2-.8 0l-12 10.2c-.2.2-.3.6-.1.8.2.2.6.3.8.1l1.1-.9v13.1c0 .3.3.6.6.6h19.9c.3 0 .6-.3.6-.6v-13.1l1.1.9c.3.2.6.2.8-.1.2-.2.2-.6 0-.8zm-11.4 12.5v-8.2h4.1v8.2h-4.1zm8.3 0h-3V214c0-.3-.3-.6-.6-.6H13c-.3 0-.6.3-.6.6v8.8H3.2v-13.5l9.4-7.9 9.4 7.9-.1 13.5z"/><path d="M6.6 455.4l4.2-4.3c.2-.3.2-.6 0-.8-.3-.2-.6-.2-.9 0l-4.2 4.3s-.1.1-.2.1-.1 0-.2-.1l-4.2-4.3c-.2-.3-.6-.3-.9 0-.1.1-.2.3-.2.5s.1.3.2.4l4.2 4.3c.3.3.6.5 1.1.5.4-.3.8-.5 1.1-.6z" fill="#b2b2b2"/><path d="M6.6 505.4l4.2-4.3c.2-.3.2-.6 0-.8-.3-.2-.6-.2-.9 0l-4.2 4.3s-.1.1-.2.1-.1 0-.2-.1l-4.2-4.3c-.2-.3-.6-.3-.9 0-.1.1-.2.3-.2.5s.1.3.2.4l4.2 4.3c.3.3.6.5 1.1.5.4-.3.8-.5 1.1-.6z" fill="#757980"/><path class="st2" d="M28.7 409.8h-1.8v-4.3c0-.4-.3-.7-.7-.7H2.6c-.7 0-1.2-.8-1.2-1.7 0-.9.6-1.7 1.2-1.7h23.6c.4 0 .7-.3.7-.7 0-.4-.3-.7-.7-.7H2.6c-1.6.1-2.7 1.5-2.6 3.1v16.3c0 1.4 1.2 2.6 2.6 2.6h23.6c.4 0 .7-.3.7-.7v-4.2h1.8c.4 0 .7-.3.7-.7v-6c-.1-.4-.4-.6-.7-.6zm-3.2 10.8H2.6c-.7 0-1.2-.5-1.2-1.2v-13.6c.4.2.8.4 1.2.4h22.9v3.6h-2.3c-2-.2-3.8 1.2-4.1 3.3-.2 2 1.2 3.8 3.3 4.1H25.5v3.4zm2.5-4.8h-4.7c-1.3-.1-2.2-1.2-2.2-2.5.1-1.2 1-2.1 2.2-2.2H28v4.7z"/><path class="st2" d="M26.2 402.4H3c-.4 0-.7.3-.7.7 0 .4.3.7.7.7h23.2c.4 0 .7-.3.7-.7 0-.4-.3-.7-.7-.7zM23.2 413c-.3.3-.3.7 0 1 .1.1.1.1.2.1s.2.1.3.1c.4 0 .7-.3.7-.7 0-.2-.1-.4-.2-.5-.3-.3-.7-.3-1 0z"/><path id="Fill-1" d="M20.5 606v-.2c0-.1-.1-.1-.1-.2l-5.4-5.4c-.2-.2-.6-.2-.9 0-.2.2-.2.6 0 .9l4.3 4.3H.6c-.3 0-.6.3-.6.6s.3.6.6.6h17.7l-4.3 4.3c-.2.2-.2.6 0 .9.1.1.3.2.4.2.2 0 .3-.1.4-.2l5.4-5.4c.1-.1.1-.1.1-.2.1 0 .2-.1.2-.2" fill="#fff"/><path class="st1" d="M28.7 359.8h-1.8v-4.3c0-.4-.3-.7-.7-.7H2.6c-.7 0-1.2-.8-1.2-1.7 0-.9.6-1.7 1.2-1.7h23.6c.4 0 .7-.3.7-.7 0-.4-.3-.7-.7-.7H2.6c-1.6.1-2.7 1.5-2.6 3.1v16.3c0 1.4 1.2 2.6 2.6 2.6h23.6c.4 0 .7-.3.7-.7v-4.2h1.8c.4 0 .7-.3.7-.7v-6c-.1-.4-.4-.6-.7-.6zm-3.2 10.8H2.6c-.7 0-1.2-.5-1.2-1.2v-13.6c.4.2.8.4 1.2.4h22.9v3.6h-2.3c-2-.2-3.8 1.2-4.1 3.3-.2 2 1.2 3.8 3.3 4.1H25.5v3.4zm2.5-4.8h-4.7c-1.3-.1-2.2-1.2-2.2-2.5.1-1.2 1-2.1 2.2-2.2H28v4.7z"/><path class="st1" d="M26.2 352.4H3c-.4 0-.7.3-.7.7 0 .4.3.7.7.7h23.2c.4 0 .7-.3.7-.7 0-.4-.3-.7-.7-.7zM23.2 363c-.3.3-.3.7 0 1 .1.1.1.1.2.1s.2.1.3.1c.4 0 .7-.3.7-.7 0-.2-.1-.4-.2-.5-.3-.3-.7-.3-1 0z"/><path class="st6" d="M12 550c-6.7 0-12 5.3-12 12s5.3 12 12 12 12-5.3 12-12-5.3-12-12-12zm0 23c-6.2 0-11-4.8-11-11s4.8-11 11-11 11 4.8 11 11-4.8 11-11 11z"/><path class="st6" d="M12.7 562l4.3-4.3c.2-.2.2-.5 0-.7s-.5-.2-.7 0l-4.3 4.3-4.3-4.3c-.2-.2-.5-.2-.7 0s-.2.5 0 .7l4.3 4.3-4.3 4.3c-.2.2-.2.5 0 .7s.5.2.7 0l4.3-4.3 4.3 4.3c.2.2.5.2.7 0s.2-.5 0-.7l-4.3-4.3z"/></svg>