<svg xmlns="http://www.w3.org/2000/svg" width="120" height="120" viewBox="0 0 120 120"><g fill="none" fill-rule="evenodd"><circle cx="60" cy="60" r="60" fill="#E7FAF5"/><path stroke="#FF7B00" stroke-linecap="round" stroke-linejoin="round" stroke-width="2" d="M54.5 67.26h10.229"/><path fill="#FFDCBB" d="M45.007 56.262h30.069"/><path stroke="#FF7B00" stroke-linecap="round" stroke-linejoin="round" stroke-width="2" d="M50.175 67.26c0 2.346-1.802 4.247-4.024 4.247-2.223 0-4.024-1.901-4.024-4.247 0-2.347 1.8-4.248 4.024-4.248 2.222 0 4.024 1.901 4.024 4.248zm26.828 0c0 2.346-1.802 4.247-4.022 4.247-2.223 0-4.026-1.901-4.026-4.247 0-2.347 1.803-4.248 4.026-4.248 2.22 0 4.022 1.901 4.022 4.248z"/><path stroke="#FF7B00" stroke-linecap="round" stroke-linejoin="round" stroke-width="2" d="M81.17 67.26h1.79c-.179-10.903-8.44-10.765-11.482-10.999-.494-.037-.614-.368-.738-.872-.642-2.634-3.321-9.908-12.947-9.856-.248.003-2.455 0-2.694.01-11.502.355-13.051 7.513-13.25 9.966-.039.48-.386.822-.828.953-5.084 1.509-4.877 10.798-4.877 10.798h1.444m3.821-10.998h30.069"/><path stroke="#2CBB9C" stroke-linecap="round" stroke-linejoin="round" stroke-width="2" d="M80.196 83.347c-13.08 10.178-32.448 10.716-47.775.401M76.968 98.18l3.226-14.832-14.664-4.091"/><path stroke="#FF7B00" stroke-linecap="round" stroke-linejoin="round" stroke-width="2" d="M38.254 36.16c13.08-10.178 32.448-10.716 47.775-.401M41.482 21.327L38.256 36.16 52.92 40.25"/><path fill="#FFDCBB" stroke="#FF7B00" stroke-linecap="round" stroke-linejoin="round" stroke-width="2" d="M55 67.26h10.229"/><path fill="#FF7B00" fill-rule="nonzero" d="M70.155 3.511a.907.907 0 0 0-1.267.018c-.884.884-1.831 1.333-2.822 1.333-1.71 0-3.074-1.322-3.089-1.335a.913.913 0 0 0-1.286 1.295l.004.005c2.75 2.756.052 5.81-.264 6.15a.913.913 0 0 0 1.308 1.27c.962-.963 1.999-1.45 3.083-1.45 1.717 0 3.056 1.218 3.071 1.231a.912.912 0 0 0 1.266-1.314c-2.67-2.678-.228-5.606.056-5.932a.912.912 0 0 0-.06-1.27zM67.227 9.15a5.742 5.742 0 0 0-1.408-.178c-.45 0-.884.052-1.31.16.226-.823.313-1.72.13-2.637a5.5 5.5 0 0 0 2.645.05 5.62 5.62 0 0 0-.057 2.605zm22.276 3.21c-.192.2-1.111 1.249-.225 2.294a.914.914 0 1 1-.981 1.54.905.905 0 0 1-.18-.119l-.005.003-.053-.055c-.174-.17-1.304-.951-2.274-.011A.905.905 0 0 1 84.507 16a.91.91 0 0 1-.04-1.247l-.002-.002c.003 0 .028-.025.043-.039.418-.43.956-1.294-.071-2.32a.913.913 0 0 1 1.254-1.324s.637.543 1.373.543c.409 0 .787-.175 1.15-.54a.911.911 0 1 1 1.289 1.288zM18.58 3.955l-.004-.003.054-.054c.51-.522.916-1.337.015-2.269l-.04-.038A.909.909 0 0 1 18.62.288a.91.91 0 0 1 1.276.01c.007.011.018.02.028.03 0 .002.004.006.007.008.092.087.566.525 1.154.525.385 0 .78-.201 1.176-.598a.917.917 0 0 1 1.271-.016.914.914 0 0 1 .053 1.271c-.192.223-1.115 1.413-.01 2.53h.003v.002a.912.912 0 0 1-1.287 1.295c-.292-.274-1.507-.99-2.384-.142a.911.911 0 0 1-1.327-1.247zM5.415 48.901c.022.49.424.876.912.876h.018a.91.91 0 0 0 .894-.91c0-3.79 3.795-4.13 4.23-4.156a.91.91 0 0 0 .855-.94.91.91 0 0 0-.908-.884c-4.025 0-4.173-3.757-4.175-4.184v-.001a.913.913 0 0 0-1.825-.017v.019c0 3.902-4.069 4.152-4.532 4.17a.913.913 0 0 0 .028 1.825c4.21.002 4.484 3.772 4.503 4.202zm112.747 2.417c.424.726 1.02 1.4 1.838 1.894-.708.426-1.376 1.01-1.87 1.788a5.6 5.6 0 0 0-1.914-1.927c.738-.415 1.429-.987 1.946-1.755z"/></g></svg>